<svg width="19" height="20" viewBox="0 0 19 20" fill="none" xmlns="http://www.w3.org/2000/svg">
<path d="M16.9849 8.03881C18.0033 8.03881 18.827 8.87134 18.8255 9.89913C18.8255 10.4138 18.6323 10.8845 18.2878 11.2327C17.9583 11.5657 17.509 11.7776 16.9834 11.761L11.6681 11.7776L11.6516 17.1497C11.6516 17.6643 11.4584 18.1351 11.1139 18.4832C10.7844 18.8162 10.3037 19.0266 9.79447 19.0266C8.77755 19.0282 7.95382 18.1956 7.93884 17.1512L7.95382 11.7776L2.62057 11.7761C1.60364 11.7776 0.764942 10.9299 0.764942 9.90064C0.763444 8.86982 1.58717 8.0373 2.62207 8.02367L7.95232 8.02216L7.93884 2.65009C7.95232 1.60414 8.77605 0.771613 9.79597 0.773126C10.8144 0.773126 11.6531 1.62079 11.6516 2.64858L11.6531 8.03881L16.9849 8.03881Z" fill="#424242"/>
</svg>
