<svg width="17" height="14" viewBox="0 0 17 14" fill="none" xmlns="http://www.w3.org/2000/svg">
<path fill-rule="evenodd" clip-rule="evenodd" d="M9.32339 0.828125C9.32339 0.413911 8.9876 0.078125 8.57339 0.078125C8.15917 0.078125 7.82339 0.413911 7.82339 0.828125V6.1677H1.61993C1.20572 6.1677 0.869934 6.50349 0.869934 6.9177C0.869934 7.33191 1.20572 7.6677 1.61993 7.6677H7.82339V13.0112C7.82339 13.4254 8.15917 13.7612 8.57339 13.7612C8.9876 13.7612 9.32339 13.4254 9.32339 13.0112V7.6677H15.529C15.9432 7.6677 16.279 7.33191 16.279 6.9177C16.279 6.50349 15.9432 6.1677 15.529 6.1677H9.32339V0.828125Z" fill="#717171"/>
</svg>
