<svg width="19" height="20" viewBox="0 0 19 20" fill="none" xmlns="http://www.w3.org/2000/svg">
<path d="M16.9849 8.1393C18.0033 8.1393 18.827 8.97183 18.8255 9.99962C18.8255 10.5143 18.6323 10.985 18.2878 11.3332C17.9583 11.6662 17.509 11.8781 16.9834 11.8615L11.6681 11.8781L11.6516 17.2502C11.6516 17.7648 11.4584 18.2356 11.1139 18.5837C10.7844 18.9167 10.3037 19.1271 9.79447 19.1271C8.77755 19.1287 7.95382 18.2961 7.93884 17.2517L7.95382 11.8781L2.62057 11.8766C1.60364 11.8781 0.764942 11.0304 0.764942 10.0011C0.763444 8.97032 1.58717 8.13779 2.62207 8.12417L7.95232 8.12265L7.93884 2.75059C7.95232 1.70463 8.77605 0.872107 9.79597 0.87362C10.8144 0.87362 11.6531 1.72128 11.6516 2.74908L11.6531 8.1393L16.9849 8.1393Z" fill="white"/>
</svg>
