<svg width="14" height="15" viewBox="0 0 14 15" fill="none" xmlns="http://www.w3.org/2000/svg">
<path d="M13.3119 10.8227C14.032 11.5505 14.032 12.7279 13.3119 13.4536C12.9518 13.8175 12.4859 14.0123 11.9987 14.0123C11.5328 14.0123 11.0668 13.8411 10.7067 13.4536L6.93659 9.66674L3.16648 13.4536C2.80641 13.8175 2.34044 14.0123 1.85329 14.0123C1.38732 14.0123 0.900169 13.8175 0.540101 13.4536C-0.180034 12.7279 -0.180034 11.5505 0.540101 10.8013L4.31022 7.01231L0.540101 3.19977C-0.180034 2.47408 -0.180034 1.27531 0.540101 0.547477C1.26024 -0.182492 2.42516 -0.182492 3.16648 0.547477L6.93659 4.35573L10.6855 0.547477C11.4268 -0.182492 12.5918 -0.182492 13.3119 0.547477C14.032 1.27531 14.032 2.47408 13.3119 3.19977L9.54179 7.01231L13.3119 10.8227Z" fill="white"/>
</svg>
